# xmcd CD database file
#
# Track frame offsets:
#	150
#	18562
#	40684
#	60581
#	87352
#	106259
#	122903
#	150886
#	174124
#	196712
#	225848
#	243839
#
# Disc length: 3618 seconds
#
# Revision: 0
# Processed by: cddbd v1.5.2PL0 Copyright (c) Steve Scherf et al.
# Submitted via: CDex 1.70beta2
#
DISCID=7b0e200c
DTITLE=Joe Fagan Quartet - My Foolish Heart
DYEAR=2007
DGENRE=Jazz
TTITLE0=Put It Where You Want It
TTITLE1=Night and Day
TTITLE2=Opus 10
TTITLE3=You Don't Know What Love Is
TTITLE4=I'll Remember April
TTITLE5=Linus an Lucy
TTITLE6=The Nearness of You
TTITLE7=Sister Sadie
TTITLE8=My Foolish Heart
TTITLE9=Delilah
TTITLE10=Unit 7
TTITLE11=Song for Bob
EXTD=YEAR: 2007
EXTT0=
EXTT1=
EXTT2=
EXTT3=
EXTT4=
EXTT5=
EXTT6=
EXTT7=
EXTT8=
EXTT9=
EXTT10=
EXTT11=
PLAYORDER=
